<svg width="508" height="293" viewBox="0 0 508 293" fill="none" xmlns="http://www.w3.org/2000/svg">
<path d="M287.16 182.963C284.223 180.111 281.719 176.508 278.265 174.552C269.251 169.447 260.771 164.002 255.422 153.882C249.268 140.737 249.25 127.638 251.173 114.473C254.404 92.3507 262.08 71.7033 273.094 52.2432C277.64 46.0853 281.923 39.713 286.792 33.8166C295.362 23.438 306.03 15.8528 319.797 14.5649C328.479 13.7527 336.845 14.1205 345.59 10.9162C356.146 7.04826 370.731 15.2347 375.264 29.0802C376.819 33.4344 378.259 37.0006 379.211 40.6907C383.509 57.3483 381.147 73.8082 376.876 90.0175C368.736 120.908 355.97 149.195 328.93 169.336C319.283 176.014 308.912 179.009 297.59 178.342C293.109 178.078 289.699 179.337 287.16 182.963ZM304.978 96.0501C300.117 108.471 294.635 120.699 290.604 133.38C287.762 142.316 291.596 149.796 298.825 153.876C319.424 142.202 337.178 83.6879 332.067 56.3173C331.099 57.4572 330.148 58.3834 329.423 59.4591C321.382 71.3909 313.375 83.3459 304.978 96.0501Z" fill="white"/>
<path d="M153.14 41.5699C158.673 35.7709 163.673 29.3237 169.861 24.3192C180.09 16.0455 191.932 12.0861 205.416 15.1356C206.704 15.4271 208.449 15.2175 209.565 14.5526C223.742 6.10636 240.274 11.1867 246.933 26.1408C247.242 26.8351 247.599 27.5085 248.183 28.9575C250.303 37.2994 253.411 44.8094 253.827 52.4631C255.407 81.5969 246.478 108.328 232.773 133.665C224.267 149.392 212.73 162.565 197.775 172.633C197.8 172.632 197.826 172.589 197.34 172.579C196.377 172.974 195.901 173.38 195.437 173.76C195.449 173.735 195.503 173.75 195.021 173.748C194.058 174.132 193.576 174.516 193.124 174.911C193.154 174.921 193.176 174.863 192.68 174.847C191.712 175.235 191.239 175.637 190.796 176.049C190.826 176.059 190.834 175.998 190.323 175.909C181.024 176.66 172.236 177.501 163.054 178.166C155.784 175.381 147.964 174.051 142.224 169.898C130.271 161.248 124.152 148.646 122.953 133.349C124.134 122.363 125.238 111.937 126.535 101.106C131.924 79.4077 140.691 59.6807 153.14 41.5699ZM196.106 116.838C202.944 97.4388 207.168 77.657 204.585 56.5179C193.715 71.9069 182.972 87.3156 174.203 103.759C168.899 113.705 166.017 125.099 163.261 136.14C161.436 143.451 165.057 149.718 171.578 154.354C184.428 144.896 190.094 131.268 196.106 116.838Z" fill="white"/>
<path d="M37.9528 172.599C17.1116 166.273 10.1911 150.494 9.36801 130.803C7.64933 89.6853 23.997 56.0379 54.8244 29.6984C71.5021 15.4487 91.8619 9.43024 114.277 14.6135C124.466 16.9695 132.076 22.642 136.409 33.2736C141.361 55.3944 134.957 71.8974 117.742 81.691C111.816 82.1354 106.371 82.5594 100.586 82.7561C95.8127 80.3832 94.6167 76.485 94.6284 72.0434C94.6334 70.143 95.0668 68.2477 95.2155 66.3432C95.6842 60.342 93.3649 58.0947 87.7802 60.3747C82.7239 62.4389 77.4704 65.1194 73.6567 68.8775C62.6808 79.6931 54.6564 92.5558 51.5601 107.784C50.4464 113.262 50.055 119.291 51.1385 124.714C53.2038 135.052 63.7615 138.911 73.6117 133.51C76.22 132.272 78.3508 130.934 80.6392 129.961C86.3498 127.533 92.0318 128.131 97.3179 131.075C101.985 133.675 99.7952 138.262 99.6764 142.009C99.554 145.868 101.195 147.645 104.978 148.757C105.218 150.529 105.248 151.733 104.981 153.176C100.606 157.104 96.9909 161.547 92.3641 164.347C75.4949 174.554 57.2734 177.52 37.9528 172.599Z" fill="white"/>
<path d="M447.734 136.418C451.586 142.17 455.439 147.922 459.306 154.506C456.977 168.25 447.64 172.699 435.486 174.253C420.079 174.313 405.128 174.851 390.222 174.265C386.221 174.108 382.357 170.525 378.403 168.221C377.583 166.422 376.791 164.917 375.985 162.958C375.588 161.031 375.618 159.238 374.754 158.134C368.605 150.286 371.008 142.311 374.079 134.273C383.62 109.304 393.162 84.3342 402.703 59.3646C407.631 49.0175 412.397 38.5895 417.589 28.3741C419.085 25.4295 421.352 22.4352 424.053 20.609C431.836 15.348 440.534 12.3395 450.14 12.5789C462.477 12.8863 467.183 18.053 466.02 31.1017C461.958 41.9346 458.804 52.2339 454.11 61.7901C442.142 86.1581 429.476 110.19 417.124 134.373C416.219 136.145 415.589 138.056 414.927 139.669C426.203 138.551 436.969 137.484 447.734 136.418Z" fill="white"/>
<path d="M195.503 173.75C195.503 173.75 195.449 173.735 195.931 173.766C196.884 173.395 197.355 172.992 197.826 172.589C197.826 172.589 197.8 172.632 198.279 172.73C213.155 168.094 227.562 168.927 241.975 172.751C257.21 179.366 268.899 189.398 272.825 206.088C274.514 213.267 274.874 220.754 275.975 229.147C262.376 229.147 249.907 229.147 237.439 229.147C224.914 229.147 212.39 229.147 199.92 229.147C199.25 238.231 202.621 244.486 210.881 247.978C224.801 253.865 236.926 250.61 247.347 239.168C255.928 243.413 264.457 247.633 273.361 252.038C265.456 265.044 254.556 273.001 240.464 276.492C220.931 281.33 202.116 280.474 185.111 268.293C159.767 250.138 154.482 218.291 172.944 192.083C179.198 186.334 185.016 181.166 190.834 175.998C190.834 175.998 190.826 176.059 191.278 176.05C192.212 175.648 192.694 175.255 193.176 174.863C193.176 174.863 193.154 174.921 193.608 174.916C194.542 174.524 195.023 174.137 195.503 173.75ZM206.137 209.444C217.283 209.444 228.429 209.444 239.659 209.444C237.69 197.652 229.982 191.902 218.213 192.959C207.274 193.942 200.828 199.985 201.065 209.233C202.383 209.303 203.716 209.373 206.137 209.444Z" fill="#E19CB4"/>
<path d="M287.356 183.333C289.699 179.337 293.109 178.078 297.59 178.342C308.912 179.009 319.283 176.013 329.406 169.469C339.602 171.557 348.982 173.536 358.276 175.856C359.709 176.214 360.744 178.14 361.963 179.341C358.172 186.326 354.382 193.312 351.293 199.005C342.282 197.804 334.051 196.629 325.793 195.674C324.167 195.487 322.29 195.829 320.802 196.511C319.165 197.262 316.672 198.664 316.647 199.827C316.604 201.765 317.709 204.648 319.256 205.519C323.063 207.664 327.458 208.751 331.503 210.519C338.343 213.51 345.706 215.82 351.77 219.969C369.643 232.197 368.298 260.243 349.761 271.581C331.751 282.598 296.574 281.426 279.413 269.203C277.86 268.096 276.465 266.771 274.461 265.102C279.26 257.093 284.02 249.149 288.597 241.512C294.568 244.7 299.743 248.201 305.446 250.269C309.783 251.841 314.856 252.281 319.475 251.86C321.778 251.65 325.173 248.615 325.555 246.425C325.936 244.247 323.722 240.797 321.634 239.223C318.813 237.095 314.935 236.405 311.672 234.779C305.665 231.785 299.342 229.158 293.924 225.308C280.637 215.866 277.831 200.847 286.012 186.729C286.579 185.751 287.041 184.712 287.356 183.333Z" fill="#E19CB4"/>
<path d="M105.277 152.936C105.248 151.733 105.218 150.529 105.213 148.406C105.238 143.18 105.238 138.873 105.238 133.908C111.555 133.908 117.215 133.908 122.876 133.908C124.152 148.646 130.271 161.248 142.224 169.898C147.964 174.051 155.783 175.381 163.048 178.677C163.511 181.744 163.588 184.125 163.666 186.506C163.666 190.694 163.666 194.882 163.666 199.775C156.07 199.775 149.046 199.775 141.728 199.775C141.728 213.055 141.161 225.665 141.921 238.195C142.454 246.998 146.94 248.396 158.616 244.533C161.314 253.076 164.113 261.587 166.572 270.193C166.866 271.221 165.637 273.484 164.562 273.967C151.185 279.973 137.359 281.655 123.68 275.543C110.671 269.73 106.492 257.867 105.724 244.955C104.975 232.362 105.465 219.697 105.414 207.064C105.405 204.985 105.412 202.907 105.412 200.094C100.354 200.094 95.6595 200.094 90.2887 200.094C90.2887 197.314 90.2887 195.265 90.2968 192.183C90.305 185.109 90.305 179.069 90.305 172.387C95.6929 172.387 100.387 172.387 105.277 172.387C105.277 165.465 105.277 159.201 105.277 152.936Z" fill="#E19CB4"/>
<path d="M378.43 168.514C382.357 170.525 386.221 174.108 390.222 174.265C405.128 174.851 420.079 174.313 435.489 174.754C436.065 181.253 436.165 187.194 436.265 193.135C436.083 195.192 435.9 197.25 435.674 199.786C428.573 199.786 421.684 199.786 414.516 199.786C414.516 213.232 413.86 226.224 414.755 239.109C415.319 247.216 419.95 248.391 431.193 244.507C433.937 253.199 436.78 261.853 439.266 270.606C439.529 271.53 437.97 273.654 436.785 274.183C424.544 279.645 411.79 281.207 399.016 276.717C384.207 271.513 379.226 259.095 378.333 245.007C377.533 232.407 378.066 219.723 378.015 207.076C378.006 204.995 378.014 202.914 378.014 200.073C372.976 200.073 368.277 200.073 362.888 200.073C362.888 193.056 362.888 186.792 362.86 179.503C362.92 176.668 363.007 174.859 363.105 172.809C365.42 172.649 367.416 172.512 369.952 172.447C373.557 171.999 378.267 174.687 378.43 168.514Z" fill="#E19CB4"/>
<path d="M448.064 136.141C436.969 137.484 426.203 138.551 414.927 139.669C415.589 138.056 416.219 136.145 417.125 134.373C429.477 110.19 442.142 86.1581 454.11 61.7901C458.804 52.2339 461.958 41.9346 466.04 31.6209C468.972 31.2001 471.683 30.9813 474.38 31.0899C486.532 31.5791 492.223 38.7509 488.731 50.2287C485.844 59.7175 482.565 69.218 478.212 78.1134C468.693 97.5661 458.382 116.638 448.064 136.141Z" fill="#FFBBBB"/>
<path d="M369.411 172.375C367.416 172.512 365.421 172.649 363.105 172.809C363.007 174.859 362.92 176.668 362.767 178.97C362.701 179.461 362.328 179.424 362.145 179.382C360.744 178.14 359.709 176.214 358.276 175.856C348.982 173.536 339.602 171.557 329.774 169.334C355.97 149.195 368.736 120.908 376.876 90.0174C381.147 73.8081 383.509 57.3482 379.211 40.6906C378.259 37.0006 376.819 33.4344 375.521 29.3678C385.613 30.1314 392.986 35.198 397.031 44.618C398.985 49.1681 400.619 53.853 402.55 58.9207C393.162 84.3342 383.62 109.304 374.079 134.273C371.008 142.311 368.605 150.286 374.754 158.134C375.618 159.238 375.588 161.031 375.739 163.259C373.475 166.8 371.443 169.588 369.411 172.375Z" fill="#FFBBBB"/>
<path d="M242.191 172.394C227.562 168.927 213.155 168.094 198.253 172.73C212.73 162.565 224.267 149.392 232.773 133.665C246.478 108.328 255.407 81.5969 253.827 52.463C253.411 44.8094 250.303 37.2994 248.413 29.2972C262.064 30.4633 269.072 39.1502 272.931 51.8033C262.08 71.7032 254.404 92.3507 251.173 114.472C249.25 127.638 249.268 140.737 255.13 153.612C250.924 160.031 246.666 166.034 242.191 172.394Z" fill="#FFBBBB"/>
<path d="M436.801 193.139C436.165 187.194 436.066 181.253 435.962 174.811C447.64 172.699 456.977 168.25 459.41 154.931C462.196 154.452 464.932 154.071 467.583 154.392C470.827 154.784 474.1 155.438 474.56 159.832C474.699 161.157 476.021 162.463 477.026 163.579C484.431 171.797 483.705 181.025 474.358 187.201C470.504 189.747 465.626 191.455 461.02 192.041C453.207 193.036 445.239 192.839 436.801 193.139Z" fill="#FFBBBB"/>
<path d="M104.981 153.176C105.277 159.201 105.277 165.465 105.277 172.387C100.387 172.387 95.6929 172.387 90.305 172.387C90.305 179.069 90.305 185.109 90.204 191.684C78.6093 194.522 67.4738 193.18 56.5575 189.134C48.4439 186.128 42.1595 181.112 38.0726 172.997C57.2734 177.52 75.4949 174.554 92.3641 164.347C96.9909 161.547 100.606 157.104 104.981 153.176Z" fill="#FFBBBB"/>
<path d="M118.225 81.6704C134.957 71.8974 141.361 55.3944 136.675 33.5306C141.93 35.7137 147.207 38.4256 152.812 41.3537C140.691 59.6806 131.924 79.4076 126.108 101.05C119.145 99.1929 116.657 95.1203 117.501 88.3871C117.782 86.1531 117.986 83.9096 118.225 81.6704Z" fill="#FFBBBB"/>
<path d="M164.019 186.643C163.588 184.125 163.511 181.744 163.441 178.853C172.236 177.501 181.024 176.66 190.323 175.909C185.016 181.166 179.198 186.334 173.069 191.701C169.962 190.194 167.167 188.487 164.019 186.643Z" fill="#FFBBBB"/>
<path d="M305.169 95.6723C313.375 83.3459 321.382 71.3909 329.423 59.459C330.148 58.3834 331.099 57.4571 332.067 56.3173C337.178 83.6879 319.424 142.202 298.825 153.876C291.596 149.796 287.762 142.316 290.604 133.38C294.635 120.699 300.117 108.471 305.169 95.6723Z" fill="#FFBBBB"/>
<path d="M195.977 117.267C190.094 131.268 184.428 144.896 171.578 154.354C165.057 149.718 161.436 143.451 163.261 136.14C166.017 125.099 168.899 113.705 174.203 103.759C182.972 87.3156 193.715 71.907 204.585 56.5179C207.168 77.657 202.944 97.4388 195.977 117.267Z" fill="#FFBBBB"/>
<path d="M197.34 172.579C197.355 172.992 196.884 173.395 195.919 173.791C195.901 173.38 196.377 172.974 197.34 172.579Z" fill="#FFBBBB"/>
<path d="M195.021 173.748C195.023 174.137 194.542 174.524 193.578 174.906C193.576 174.516 194.058 174.132 195.021 173.748Z" fill="#FFBBBB"/>
<path d="M192.68 174.847C192.694 175.255 192.212 175.648 191.248 176.04C191.239 175.637 191.712 175.235 192.68 174.847Z" fill="#FFBBBB"/>
<path d="M100.586 82.7561C86.0737 96.4565 76.0225 112.571 73.1763 133.104C63.7615 138.911 53.2037 135.052 51.1384 124.714C50.055 119.291 50.4463 113.262 51.5601 107.784C54.6563 92.5559 62.6807 79.6931 73.6567 68.8775C77.4704 65.1194 82.7238 62.4389 87.7801 60.3747C93.3649 58.0947 95.6841 60.342 95.2155 66.3432C95.0667 68.2477 94.6334 70.1431 94.6284 72.0434C94.6167 76.485 95.8127 80.3832 100.586 82.7561Z" fill="#FFBBBB"/>
</svg>
